<?xml version="1.0" encoding="UTF-8"?>
<svg viewBox="0 0 1024 768" xmlns="http://www.w3.org/2000/svg" xmlns:xlink="http://www.w3.org/1999/xlink">
 <defs>
  <filter id="s">
   <feGaussianBlur stdDeviation="3.7578"/>
  </filter>
  <filter id="d">
   <feGaussianBlur stdDeviation="1.89394"/>
  </filter>
  <filter id="f">
   <feGaussianBlur stdDeviation="9.05104"/>
  </filter>
  <filter id="e" x="-.13577" y="-.02884" width="1.2715" height="1.0577">
   <feGaussianBlur stdDeviation="9.05104"/>
  </filter>
  <linearGradient id="b">
   <stop stop-color="#ba00ff" offset="0"/>
   <stop stop-color="#ba00ff" stop-opacity="0" offset="1"/>
  </linearGradient>
  <linearGradient id="a">
   <stop stop-color="#f60" offset="0"/>
   <stop stop-color="#f60" stop-opacity="0" offset="1"/>
  </linearGradient>
  <linearGradient id="c">
   <stop stop-color="#dc0000" offset="0"/>
   <stop stop-color="#dc0000" stop-opacity="0" offset="1"/>
  </linearGradient>
  <linearGradient id="i" x1="1343.3" x2="1250" y1="440" y2="406.67" gradientTransform="matrix(.26025 .06973 -.07299 .2724 448.91 145.91)" gradientUnits="userSpaceOnUse" xlink:href="#b"/>
  <linearGradient id="j" x1="2.2142" x2="85.733" y1="184.36" y2="142.5" gradientUnits="userSpaceOnUse" xlink:href="#b"/>
  <linearGradient id="l" x1="1193.3" x2="1283.3" y1="590" y2="800" gradientTransform="matrix(.26025 .06973 -.07299 .2724 448.91 145.91)" gradientUnits="userSpaceOnUse" xlink:href="#b"/>
  <linearGradient id="k" x1="1116.7" x2="1316.7" y1="593.33" y2="800" gradientTransform="matrix(.26025 .06973 -.07299 .2724 448.91 145.91)" gradientUnits="userSpaceOnUse" xlink:href="#b"/>
  <linearGradient id="h" x1="1006.7" x2="950" y1="233.33" y2="200" gradientTransform="matrix(.5 .01852 0 .5 46.867 129.12)" gradientUnits="userSpaceOnUse" xlink:href="#a"/>
  <linearGradient id="g" x1="2.2144" x2="85.733" y1="191.34" y2="152.97" gradientUnits="userSpaceOnUse" xlink:href="#a"/>
  <linearGradient id="m" x1="1056.7" x2="1040" y1="323.33" y2="510" gradientTransform="matrix(.5 .01852 0 .5 46.867 129.12)" gradientUnits="userSpaceOnUse" xlink:href="#a"/>
  <linearGradient id="n" x1="813.33" x2="933.33" y1="386.67" y2="490" gradientTransform="matrix(.5377 .01991 0 .53601 20.473 117.51)" gradientUnits="userSpaceOnUse" xlink:href="#a"/>
  <linearGradient id="o" x1="256.67" x2="133.33" y1="170" y2="123.33" gradientTransform="matrix(.25 -.0489 0 .25 207.7 228.9)" gradientUnits="userSpaceOnUse" xlink:href="#c"/>
  <linearGradient id="p" x1="-5.3687" x2="137.45" y1="202.2" y2="142.93" gradientUnits="userSpaceOnUse" xlink:href="#c"/>
  <linearGradient id="r" x1="296.67" x2="266.67" y1="266.67" y2="580" gradientTransform="matrix(.25 -.0489 0 .25 207.7 228.9)" gradientUnits="userSpaceOnUse" xlink:href="#c"/>
  <linearGradient id="q" x1="-20" x2="173.33" y1="343.33" y2="593.33" gradientTransform="matrix(.25 -.0489 0 .25 207.7 228.9)" gradientUnits="userSpaceOnUse" xlink:href="#c"/>
 </defs>
 <path d="m155.2 346.67 75.833-118.17s120.83 42.2 115.83 43.178-77.5 136.82-77.5 136.82c-36.555-28.409-73.26-56.04-114.17-61.838z" fill="#ff4141"/>
 <path d="m269.4 406.87-37.566-176.89" fill="none" stroke="#c4594f" stroke-width="1.5336"/>
 <path d="m155.2 348.34c50.866-76.273 114.69-99.71 190-76.327" fill="none" stroke="#c4594f" stroke-width="1.6"/>
 <path transform="matrix(.21394 -.04184 0 .23556 210.32 228.33)" d="m256.67 776.67-160-753.33" fill="none" filter="url(#e)" stroke="#c4594f" stroke-width="6.4"/>
 <path transform="matrix(.25 -.0489 0 .25 207.7 228.9)" d="m-210 436.67c203.46-265.3 458.77-309.11 760-156.67" fill="none" filter="url(#f)" stroke="#c4594f" stroke-width="6.4"/>
 <path d="m261.03 396.8c-26.765-35.939-59.07-43.097-90-57.398 18.6-21.739 38.345-39.12 59.167-52.405z" fill="url(#q)"/>
 <path d="m275.18 388.77c7.7229-55.638 35.091-75.827 54.773-109.89-20.258-6.2296-38.632-14.922-78.211 4.0936z" fill="url(#r)"/>
 <path transform="matrix(.24507 -.04793 0 .29525 208.18 224.94)" d="m-66.667 246.67 146.67-156.67 13.333 93.333z" fill="url(#p)" filter="url(#d)"/>
 <path d="m241.03 244.88 6.0311 22.02 44.802-7.7959z" fill="url(#o)"/>
 <path d="m372.39 361.65 117.32-162.88s186.94 113.46 179.21 113.18-119.9 192.45-119.9 192.45c-56.555-59.639-113.34-118.08-176.63-142.75z" fill="#f90"/>
 <path d="m549.07 501.76-58.12-300.3" fill="none" stroke="#ec821d" stroke-width="2.4266"/>
 <path d="m372.39 364.35c78.696-104.42 177.44-118.49 293.95-52.498" fill="none" stroke="#ea8334" stroke-width="2.5315"/>
 <path transform="matrix(.35743 .01324 0 .3911 455.75 190.72)" d="m256.67 776.67-160-753.33" fill="none" filter="url(#e)" opacity=".53659" stroke="#48443b" stroke-width="6.4"/>
 <path d="m546.63 496.23c-44.532-73.079-98.28-98.449-149.74-135.66 30.946-30.257 63.798-52.495 98.441-67.194z" fill="url(#n)"/>
 <path d="m558.02 474.63c11.948-87.152 54.29-109.59 84.741-157.35-31.342-17.654-59.769-38.589-121-22.611z" fill="url(#m)"/>
 <path transform="matrix(.37916 .01404 0 .4778 454.36 184.46)" d="m-66.667 246.67 146.67-156.67 13.333 93.333z" fill="url(#g)" filter="url(#d)"/>
 <path d="m505.19 229.01 9.3308 37.89 69.314 4.1313z" fill="url(#h)"/>
 <path d="m658.2 393.01 85.477-74.743s81.75 84.115 77.724 83.036-91.151 90.547-91.151 90.547c-21.036-39.238-42.369-77.849-72.05-98.841z" fill="#d76cff"/>
 <path d="m730.66 490.42 13.273-170.54" fill="none" stroke="#a746b9" stroke-width="1.3378"/>
 <path d="m657.8 394.48c56.629-47.5 110.61-43.387 162.25 6.4642" fill="none" stroke="#a746b9" stroke-width="1.3957"/>
 <path transform="matrix(.17228 .04616 -.05565 .20769 727.99 310.07)" d="m256.67 776.67-160-753.33" fill="none" filter="url(#e)" stroke="#a746b9" stroke-width="6.4"/>
 <path transform="matrix(.20132 .05394 -.05906 .22042 556.91 242.24)" d="m656.67 530c203.46-265.3 458.77-309.11 760-156.67" fill="none" filter="url(#f)" stroke="#a746b9" stroke-width="6.4"/>
 <path d="m726.69 478.3c-11.826-42.076-34.656-60.928-54.755-85.544 19.254-11.946 38.348-19.605 57.291-23.235z" fill="url(#k)"/>
 <path d="m739.33 476.71c19.006-46.056 44.55-53.231 67.536-75.619-13.906-13.357-25.799-28.153-60.333-26.753z" fill="url(#l)"/>
 <path transform="matrix(.19735 .05288 -.06975 .26031 727.17 306.25)" d="m-66.667 246.67 146.67-156.67 13.333 93.333z" fill="url(#j)" filter="url(#d)"/>
 <path d="m747.4 336.59-0.62418 21.756 35.849 10.519z" fill="url(#i)"/>
 <path d="m215.88 527.5 58.662-83.613s93.472 53.269 89.604 53.269-59.951 98.447-59.951 98.447c-28.277-28.772-56.671-56.939-88.315-68.104z" fill="#ccff42"/>
 <path d="m304.22 594.28-29.06-149.07" fill="none" stroke="#74b927" stroke-width="1.2133"/>
 <path d="m215.88 528.85c39.348-53.666 88.721-62.53 146.98-31.692" fill="none" stroke="#74b927" stroke-width="1.2658"/>
 <path transform="matrix(.16549 0 0 .19061 258.52 440.47)" d="m256.67 776.67-160-753.33" fill="none" filter="url(#e)" stroke="#74b927" stroke-width="6.4"/>
 <path transform="matrix(.19339 0 0 .20229 88.887 421.63)" d="m656.67 530c203.46-265.3 458.77-309.11 760-156.67" fill="none" filter="url(#f)" stroke="#74b927" stroke-width="6.4"/>
 <path d="m297.75 584.81c-20.705-33.316-45.694-44.22-69.62-60.687 14.388-14.647 29.662-25.586 45.769-33.041z" fill="#9ade00"/>
 <path d="m308.69 580.55c5.9741-43.797 27.145-55.802 42.37-80.246-15.671-8.2468-29.885-18.188-60.501-9.065z" fill="#9ade00"/>
 <path transform="matrix(.18958 0 0 .2389 256.86 437.39)" d="m-66.667 246.67 146.67-156.67 13.333 93.333z" fill="#9ade00" filter="url(#d)"/>
 <path d="m282.28 458.72 4.6654 18.772 34.657 0.78218z" fill="#9ade00"/>
 <path d="m243.53 277.93 20.167 19.222-1.8333 60.525" fill="none" opacity=".76098" stroke="#c4594f" stroke-width=".5"/>
 <path d="m507.03 274.17 18.452 86.017 4.4061 44.163" fill="none" opacity=".3561" stroke="#fff" stroke-width=".74491"/>
 <path d="m283.53 479.96 15.638 17.667-5.137 46.667" fill="none" opacity=".66829" stroke="#74b927" stroke-width=".77019"/>
 <path d="m735.84 360.68 30.555 54.901-31.23 22.775" fill="none" stroke="#a746b9" stroke-width="1.6426"/>
 <path d="m264.53 300.79c78.141 150.56 184.79 288.54 294 399.17" fill="none" stroke="#ebebeb" stroke-width=".5"/>
 <path d="m525.2 354.96c78.141 150.56 87.462 256.04 196.67 366.67" fill="none" opacity=".70244" stroke="#ebebeb" stroke-width=".5"/>
 <path d="m299.37 499.29c78.141 150.56 56.628 130.04 165.83 240.67" fill="none" stroke="#ebebeb" stroke-width=".5"/>
 <path d="m770.2 410.05c78.141 150.56-389.21 220.94-280 331.57" fill="none" stroke="#ebebeb" stroke-width=".5"/>
 <path transform="matrix(.5 .01852 0 .5 221.37 185.92)" d="m302.05 345.67c157.39-214.67 354.88-250.12 587.91-126.77" fill="none" filter="url(#s)" stroke="#ea8334" stroke-width="5.063"/>
</svg>
